<mxfile host="Electron" agent="Mozilla/5.0 (Macintosh; Intel Mac OS X 10_15_7) AppleWebKit/537.36 (KHTML, like Gecko) draw.io/28.2.8 Chrome/140.0.7339.240 Electron/38.4.0 Safari/537.36" version="28.2.8">
  <diagram name="Page-1" id="T9JU7Z6SRnpTZs2GaW0j">
    <mxGraphModel dx="1373" dy="724" grid="1" gridSize="10" guides="1" tooltips="1" connect="1" arrows="1" fold="1" page="0" pageScale="1" pageWidth="850" pageHeight="1100" math="0" shadow="0">
      <root>
        <mxCell id="0" />
        <mxCell id="1" parent="0" />
        <mxCell id="yKyOrlyqtT06PDXFSHLk-1" value="&lt;p dir=&quot;ltr&quot; style=&quot;box-sizing: border-box; margin: 6pt 0px; padding: 0px; color: rgb(0, 0, 0); font-family: SFProDisplay; font-size: 16px; font-style: normal; font-variant-ligatures: normal; font-variant-caps: normal; font-weight: 400; letter-spacing: normal; orphans: 2; text-align: start; text-indent: 0px; text-transform: none; widows: 2; word-spacing: 0px; -webkit-text-stroke-width: 0px; white-space: normal; background-color: rgb(255, 255, 255); text-decoration-thickness: initial; text-decoration-style: initial; text-decoration-color: initial; line-height: 1.8;&quot;&gt;&lt;span style=&quot;box-sizing: border-box; margin: 0px; padding: 0px; background-color: transparent; color: rgb(0, 0, 0); font-family: Arial, sans-serif; font-size: 12pt;&quot;&gt;&lt;span style=&quot;box-sizing: border-box; margin: 0px; padding: 0px; font-style: normal; font-variant: normal; text-decoration: none; vertical-align: baseline; white-space: pre-wrap;&quot;&gt;&lt;strong style=&quot;box-sizing: border-box; margin: 0px; padding: 0px; font-weight: bolder;&quot;&gt;Đối tượng cần phân tích:&lt;/strong&gt;&lt;/span&gt;&lt;span style=&quot;box-sizing: border-box; margin: 0px; padding: 0px; font-style: normal; font-variant: normal; font-weight: 400; text-decoration: none; vertical-align: baseline; white-space: pre-wrap;&quot;&gt; Tài khoản người dùng.&lt;/span&gt;&lt;/span&gt;&lt;/p&gt;&lt;p dir=&quot;ltr&quot; style=&quot;box-sizing: border-box; margin: 6pt 0px; padding: 0px; color: rgb(0, 0, 0); font-family: SFProDisplay; font-size: 16px; font-style: normal; font-variant-ligatures: normal; font-variant-caps: normal; font-weight: 400; letter-spacing: normal; orphans: 2; text-align: start; text-indent: 0px; text-transform: none; widows: 2; word-spacing: 0px; -webkit-text-stroke-width: 0px; white-space: normal; background-color: rgb(255, 255, 255); text-decoration-thickness: initial; text-decoration-style: initial; text-decoration-color: initial; line-height: 1.8;&quot;&gt;&lt;span style=&quot;box-sizing: border-box; margin: 0px; padding: 0px; background-color: transparent; color: rgb(0, 0, 0); font-family: Arial, sans-serif; font-size: 12pt;&quot;&gt;&lt;span style=&quot;box-sizing: border-box; margin: 0px; padding: 0px; font-style: normal; font-variant: normal; text-decoration: none; vertical-align: baseline; white-space: pre-wrap;&quot;&gt;&lt;strong style=&quot;box-sizing: border-box; margin: 0px; padding: 0px; font-weight: bolder;&quot;&gt;Các trạng thái:&lt;/strong&gt;&lt;/span&gt;&lt;/span&gt;&lt;/p&gt;&lt;ul style=&quot;box-sizing: border-box; margin: 0px; padding: 0px 0px 0px 2rem; list-style: circle; color: rgb(33, 37, 41); font-family: SFProDisplay; font-size: 16px; font-style: normal; font-variant-ligatures: normal; font-variant-caps: normal; font-weight: 400; letter-spacing: normal; orphans: 2; text-align: start; text-indent: 0px; text-transform: none; widows: 2; word-spacing: 0px; -webkit-text-stroke-width: 0px; white-space: normal; background-color: rgb(255, 255, 255); text-decoration-thickness: initial; text-decoration-style: initial; text-decoration-color: initial; padding-inline-start: 48px;&quot;&gt;&lt;li dir=&quot;ltr&quot; aria-level=&quot;1&quot; style=&quot;box-sizing: border-box; margin: 0px; padding: 0px; background-color: transparent; color: rgb(0, 0, 0); font-family: Arial, sans-serif; font-size: 12pt; font-style: normal; font-variant: normal; font-weight: 400; list-style-type: disc; text-decoration: none; vertical-align: baseline; white-space: pre;&quot;&gt;&lt;span style=&quot;box-sizing: border-box; margin: 0px; padding: 0px; background-color: transparent; color: rgb(0, 0, 0); font-family: Arial, sans-serif; font-size: 12pt;&quot;&gt;&lt;span style=&quot;box-sizing: border-box; margin: 0px; padding: 0px; font-style: normal; font-variant: normal; text-decoration: none; vertical-align: baseline; white-space: pre-wrap;&quot;&gt;&lt;strong style=&quot;box-sizing: border-box; margin: 0px; padding: 0px; font-weight: bolder;&quot;&gt;Mới tạo:&lt;/strong&gt;&lt;/span&gt;&lt;span style=&quot;box-sizing: border-box; margin: 0px; padding: 0px; font-style: normal; font-variant: normal; font-weight: 400; text-decoration: none; vertical-align: baseline; white-space: pre-wrap;&quot;&gt; Tài khoản vừa được tạo và chưa có hoạt động gì.&lt;/span&gt;&lt;/span&gt;&lt;/li&gt;&lt;li dir=&quot;ltr&quot; aria-level=&quot;1&quot; style=&quot;box-sizing: border-box; margin: 0px; padding: 0px; background-color: transparent; color: rgb(0, 0, 0); font-family: Arial, sans-serif; font-size: 12pt; font-style: normal; font-variant: normal; font-weight: 400; list-style-type: disc; text-decoration: none; vertical-align: baseline; white-space: pre;&quot;&gt;&lt;span style=&quot;box-sizing: border-box; margin: 0px; padding: 0px; background-color: transparent; color: rgb(0, 0, 0); font-family: Arial, sans-serif; font-size: 12pt;&quot;&gt;&lt;span style=&quot;box-sizing: border-box; margin: 0px; padding: 0px; font-style: normal; font-variant: normal; text-decoration: none; vertical-align: baseline; white-space: pre-wrap;&quot;&gt;&lt;strong style=&quot;box-sizing: border-box; margin: 0px; padding: 0px; font-weight: bolder;&quot;&gt;Hoạt động:&lt;/strong&gt;&lt;/span&gt;&lt;span style=&quot;box-sizing: border-box; margin: 0px; padding: 0px; font-style: normal; font-variant: normal; font-weight: 400; text-decoration: none; vertical-align: baseline; white-space: pre-wrap;&quot;&gt; Tài khoản đang được sử dụng bình thường.&lt;/span&gt;&lt;/span&gt;&lt;/li&gt;&lt;li dir=&quot;ltr&quot; aria-level=&quot;1&quot; style=&quot;box-sizing: border-box; margin: 0px; padding: 0px; background-color: transparent; color: rgb(0, 0, 0); font-family: Arial, sans-serif; font-size: 12pt; font-style: normal; font-variant: normal; font-weight: 400; list-style-type: disc; text-decoration: none; vertical-align: baseline; white-space: pre;&quot;&gt;&lt;span style=&quot;box-sizing: border-box; margin: 0px; padding: 0px; background-color: transparent; color: rgb(0, 0, 0); font-family: Arial, sans-serif; font-size: 12pt;&quot;&gt;&lt;span style=&quot;box-sizing: border-box; margin: 0px; padding: 0px; font-style: normal; font-variant: normal; text-decoration: none; vertical-align: baseline; white-space: pre-wrap;&quot;&gt;&lt;strong style=&quot;box-sizing: border-box; margin: 0px; padding: 0px; font-weight: bolder;&quot;&gt;Bị khóa:&lt;/strong&gt;&lt;/span&gt;&lt;span style=&quot;box-sizing: border-box; margin: 0px; padding: 0px; font-style: normal; font-variant: normal; font-weight: 400; text-decoration: none; vertical-align: baseline; white-space: pre-wrap;&quot;&gt; Tài khoản bị khóa do vi phạm hoặc lý do khác.&lt;/span&gt;&lt;/span&gt;&lt;/li&gt;&lt;li dir=&quot;ltr&quot; aria-level=&quot;1&quot; style=&quot;box-sizing: border-box; margin: 0px; padding: 0px; background-color: transparent; color: rgb(0, 0, 0); font-family: Arial, sans-serif; font-size: 12pt; font-style: normal; font-variant: normal; font-weight: 400; list-style-type: disc; text-decoration: none; vertical-align: baseline; white-space: pre;&quot;&gt;&lt;span style=&quot;box-sizing: border-box; margin: 0px; padding: 0px; background-color: transparent; color: rgb(0, 0, 0); font-family: Arial, sans-serif; font-size: 12pt;&quot;&gt;&lt;span style=&quot;box-sizing: border-box; margin: 0px; padding: 0px; font-style: normal; font-variant: normal; text-decoration: none; vertical-align: baseline; white-space: pre-wrap;&quot;&gt;&lt;strong style=&quot;box-sizing: border-box; margin: 0px; padding: 0px; font-weight: bolder;&quot;&gt;Kích hoạt lại:&lt;/strong&gt;&lt;/span&gt;&lt;span style=&quot;box-sizing: border-box; margin: 0px; padding: 0px; font-style: normal; font-variant: normal; font-weight: 400; text-decoration: none; vertical-align: baseline; white-space: pre-wrap;&quot;&gt; Tài khoản đã bị khóa và được kích hoạt lại.&lt;/span&gt;&lt;/span&gt;&lt;/li&gt;&lt;/ul&gt;&lt;p dir=&quot;ltr&quot; style=&quot;box-sizing: border-box; margin: 6pt 0px; padding: 0px; color: rgb(0, 0, 0); font-family: SFProDisplay; font-size: 16px; font-style: normal; font-variant-ligatures: normal; font-variant-caps: normal; font-weight: 400; letter-spacing: normal; orphans: 2; text-align: start; text-indent: 0px; text-transform: none; widows: 2; word-spacing: 0px; -webkit-text-stroke-width: 0px; white-space: normal; background-color: rgb(255, 255, 255); text-decoration-thickness: initial; text-decoration-style: initial; text-decoration-color: initial; line-height: 1.8;&quot;&gt;&lt;span style=&quot;box-sizing: border-box; margin: 0px; padding: 0px; background-color: transparent; color: rgb(0, 0, 0); font-family: Arial, sans-serif; font-size: 12pt;&quot;&gt;&lt;span style=&quot;box-sizing: border-box; margin: 0px; padding: 0px; font-style: normal; font-variant: normal; text-decoration: none; vertical-align: baseline; white-space: pre-wrap;&quot;&gt;&lt;strong style=&quot;box-sizing: border-box; margin: 0px; padding: 0px; font-weight: bolder;&quot;&gt;Yêu cầu:&lt;/strong&gt;&lt;/span&gt;&lt;/span&gt;&lt;/p&gt;&lt;ol style=&quot;box-sizing: border-box; margin: 0px; padding: 0px 0px 0px 2rem; color: rgb(33, 37, 41); font-family: SFProDisplay; font-size: 16px; font-style: normal; font-variant-ligatures: normal; font-variant-caps: normal; font-weight: 400; letter-spacing: normal; orphans: 2; text-align: start; text-indent: 0px; text-transform: none; widows: 2; word-spacing: 0px; -webkit-text-stroke-width: 0px; white-space: normal; background-color: rgb(255, 255, 255); text-decoration-thickness: initial; text-decoration-style: initial; text-decoration-color: initial; padding-inline-start: 48px;&quot;&gt;&lt;li dir=&quot;ltr&quot; aria-level=&quot;1&quot; style=&quot;box-sizing: border-box; margin: 0px; padding: 0px; background-color: transparent; color: rgb(0, 0, 0); font-family: Arial, sans-serif; font-size: 12pt; font-style: normal; font-variant: normal; font-weight: 400; list-style-type: decimal; text-decoration: none; vertical-align: baseline; white-space: pre;&quot;&gt;&lt;span style=&quot;box-sizing: border-box; margin: 0px; padding: 0px; background-color: transparent; color: rgb(0, 0, 0); font-family: Arial, sans-serif; font-size: 12pt;&quot;&gt;&lt;span style=&quot;box-sizing: border-box; margin: 0px; padding: 0px; font-style: normal; font-variant: normal; text-decoration: none; vertical-align: baseline; white-space: pre-wrap;&quot;&gt;&lt;strong style=&quot;box-sizing: border-box; margin: 0px; padding: 0px; font-weight: bolder;&quot;&gt;Vẽ State Diagram&lt;/strong&gt;&lt;/span&gt;&lt;span style=&quot;box-sizing: border-box; margin: 0px; padding: 0px; font-style: normal; font-variant: normal; font-weight: 400; text-decoration: none; vertical-align: baseline; white-space: pre-wrap;&quot;&gt; cho đối tượng&amp;nbsp;&lt;/span&gt;&lt;span style=&quot;box-sizing: border-box; margin: 0px; padding: 0px; font-style: normal; font-variant: normal; text-decoration: none; vertical-align: baseline; white-space: pre-wrap;&quot;&gt;&lt;strong style=&quot;box-sizing: border-box; margin: 0px; padding: 0px; font-weight: bolder;&quot;&gt;Tài khoản người dùng&lt;/strong&gt;&lt;/span&gt;&lt;span style=&quot;box-sizing: border-box; margin: 0px; padding: 0px; font-style: normal; font-variant: normal; font-weight: 400; text-decoration: none; vertical-align: baseline; white-space: pre-wrap;&quot;&gt;, thể hiện sự thay đổi giữa các trạng thái:&lt;/span&gt;&lt;/span&gt;&lt;ul style=&quot;box-sizing: border-box; margin: 0px; padding: 0px 0px 0px 2rem; list-style: circle; padding-inline-start: 48px;&quot;&gt;&lt;li dir=&quot;ltr&quot; aria-level=&quot;2&quot; style=&quot;box-sizing: border-box; margin: 0px; padding: 0px; background-color: transparent; color: rgb(0, 0, 0); font-family: Arial, sans-serif; font-size: 12pt; font-style: normal; font-variant: normal; font-weight: 400; list-style-type: circle; text-decoration: none; vertical-align: baseline; white-space: pre;&quot;&gt;&lt;span style=&quot;box-sizing: border-box; margin: 0px; padding: 0px; background-color: transparent; color: rgb(0, 0, 0); font-family: Arial, sans-serif; font-size: 12pt;&quot;&gt;&lt;span style=&quot;box-sizing: border-box; margin: 0px; padding: 0px; font-style: normal; font-variant: normal; text-decoration: none; vertical-align: baseline; white-space: pre-wrap;&quot;&gt;&lt;strong style=&quot;box-sizing: border-box; margin: 0px; padding: 0px; font-weight: bolder;&quot;&gt;Mới tạo → Hoạt động → Bị khóa → Kích hoạt lại&lt;/strong&gt;&lt;/span&gt;&lt;span style=&quot;box-sizing: border-box; margin: 0px; padding: 0px; font-style: normal; font-variant: normal; font-weight: 400; text-decoration: none; vertical-align: baseline; white-space: pre-wrap;&quot;&gt;.&lt;/span&gt;&lt;/span&gt;&lt;/li&gt;&lt;/ul&gt;&lt;/li&gt;&lt;li dir=&quot;ltr&quot; aria-level=&quot;1&quot; style=&quot;box-sizing: border-box; margin: 0px; padding: 0px; background-color: transparent; color: rgb(0, 0, 0); font-family: Arial, sans-serif; font-size: 12pt; font-style: normal; font-variant: normal; font-weight: 400; list-style-type: decimal; text-decoration: none; vertical-align: baseline; white-space: pre;&quot;&gt;&lt;span style=&quot;box-sizing: border-box; margin: 0px; padding: 0px; background-color: transparent; color: rgb(0, 0, 0); font-family: Arial, sans-serif; font-size: 12pt;&quot;&gt;&lt;span style=&quot;box-sizing: border-box; margin: 0px; padding: 0px; font-style: normal; font-variant: normal; font-weight: 400; text-decoration: none; vertical-align: baseline; white-space: pre-wrap;&quot;&gt;Sơ đồ cần chỉ ra các&amp;nbsp;&lt;/span&gt;&lt;span style=&quot;box-sizing: border-box; margin: 0px; padding: 0px; font-style: normal; font-variant: normal; text-decoration: none; vertical-align: baseline; white-space: pre-wrap;&quot;&gt;&lt;strong style=&quot;box-sizing: border-box; margin: 0px; padding: 0px; font-weight: bolder;&quot;&gt;chuyển trạng thái&lt;/strong&gt;&lt;/span&gt;&lt;span style=&quot;box-sizing: border-box; margin: 0px; padding: 0px; font-style: normal; font-variant: normal; font-weight: 400; text-decoration: none; vertical-align: baseline; white-space: pre-wrap;&quot;&gt; giữa các trạng thái.&lt;/span&gt;&lt;/span&gt;&lt;/li&gt;&lt;/ol&gt;&lt;br class=&quot;Apple-interchange-newline&quot;&gt;" style="text;whiteSpace=wrap;html=1;" vertex="1" parent="1">
          <mxGeometry x="-130" y="50" width="560" height="320" as="geometry" />
        </mxCell>
        <mxCell id="yKyOrlyqtT06PDXFSHLk-4" style="edgeStyle=orthogonalEdgeStyle;rounded=0;orthogonalLoop=1;jettySize=auto;html=1;entryX=1;entryY=0.5;entryDx=0;entryDy=0;" edge="1" parent="1" source="yKyOrlyqtT06PDXFSHLk-2" target="yKyOrlyqtT06PDXFSHLk-3">
          <mxGeometry relative="1" as="geometry" />
        </mxCell>
        <mxCell id="yKyOrlyqtT06PDXFSHLk-2" value="" style="ellipse;html=1;shape=endState;fillColor=#000000;strokeColor=light-dark(#000000, #ff9090);strokeWidth=10;" vertex="1" parent="1">
          <mxGeometry x="-90" y="420" width="30" height="30" as="geometry" />
        </mxCell>
        <mxCell id="yKyOrlyqtT06PDXFSHLk-6" style="edgeStyle=orthogonalEdgeStyle;rounded=0;orthogonalLoop=1;jettySize=auto;html=1;entryX=1;entryY=0.5;entryDx=0;entryDy=0;" edge="1" parent="1" source="yKyOrlyqtT06PDXFSHLk-3" target="yKyOrlyqtT06PDXFSHLk-5">
          <mxGeometry relative="1" as="geometry" />
        </mxCell>
        <mxCell id="yKyOrlyqtT06PDXFSHLk-3" value="Mới tạo" style="html=1;whiteSpace=wrap;strokeColor=default;flipV=1;direction=west;rounded=1;" vertex="1" parent="1">
          <mxGeometry x="40" y="420" width="100" height="30" as="geometry" />
        </mxCell>
        <mxCell id="yKyOrlyqtT06PDXFSHLk-9" style="edgeStyle=orthogonalEdgeStyle;rounded=0;orthogonalLoop=1;jettySize=auto;html=1;entryX=1;entryY=0.5;entryDx=0;entryDy=0;" edge="1" parent="1" source="yKyOrlyqtT06PDXFSHLk-5" target="yKyOrlyqtT06PDXFSHLk-8">
          <mxGeometry relative="1" as="geometry" />
        </mxCell>
        <mxCell id="yKyOrlyqtT06PDXFSHLk-5" value="Hoạt động" style="html=1;whiteSpace=wrap;strokeColor=default;flipV=1;direction=west;rounded=1;" vertex="1" parent="1">
          <mxGeometry x="320" y="420" width="100" height="30" as="geometry" />
        </mxCell>
        <mxCell id="yKyOrlyqtT06PDXFSHLk-7" value="khởi tạo thành công" style="text;html=1;whiteSpace=wrap;strokeColor=none;fillColor=none;align=center;verticalAlign=middle;rounded=0;" vertex="1" parent="1">
          <mxGeometry x="160" y="410" width="130" height="30" as="geometry" />
        </mxCell>
        <mxCell id="yKyOrlyqtT06PDXFSHLk-12" style="edgeStyle=orthogonalEdgeStyle;rounded=0;orthogonalLoop=1;jettySize=auto;html=1;" edge="1" parent="1" source="yKyOrlyqtT06PDXFSHLk-8" target="yKyOrlyqtT06PDXFSHLk-11">
          <mxGeometry relative="1" as="geometry" />
        </mxCell>
        <mxCell id="yKyOrlyqtT06PDXFSHLk-8" value="Bị khóa" style="html=1;whiteSpace=wrap;strokeColor=default;flipV=1;direction=west;rounded=1;" vertex="1" parent="1">
          <mxGeometry x="560" y="420" width="100" height="30" as="geometry" />
        </mxCell>
        <mxCell id="yKyOrlyqtT06PDXFSHLk-10" value="khóa tài khoản" style="text;html=1;whiteSpace=wrap;strokeColor=none;fillColor=none;align=center;verticalAlign=middle;rounded=0;" vertex="1" parent="1">
          <mxGeometry x="430" y="410" width="110" height="30" as="geometry" />
        </mxCell>
        <mxCell id="yKyOrlyqtT06PDXFSHLk-14" style="edgeStyle=orthogonalEdgeStyle;rounded=0;orthogonalLoop=1;jettySize=auto;html=1;entryX=0.5;entryY=0;entryDx=0;entryDy=0;" edge="1" parent="1" source="yKyOrlyqtT06PDXFSHLk-11" target="yKyOrlyqtT06PDXFSHLk-5">
          <mxGeometry relative="1" as="geometry" />
        </mxCell>
        <mxCell id="yKyOrlyqtT06PDXFSHLk-11" value="kích hoạt lại" style="html=1;whiteSpace=wrap;strokeColor=default;flipV=1;direction=west;rounded=1;" vertex="1" parent="1">
          <mxGeometry x="560" y="580" width="100" height="30" as="geometry" />
        </mxCell>
        <mxCell id="yKyOrlyqtT06PDXFSHLk-13" value="kích hoạt tài khoản" style="text;html=1;whiteSpace=wrap;strokeColor=none;fillColor=none;align=center;verticalAlign=middle;rounded=0;" vertex="1" parent="1">
          <mxGeometry x="610" y="510" width="60" height="30" as="geometry" />
        </mxCell>
        <mxCell id="yKyOrlyqtT06PDXFSHLk-15" value="mở khóa tài khoản" style="text;html=1;whiteSpace=wrap;strokeColor=none;fillColor=none;align=center;verticalAlign=middle;rounded=0;" vertex="1" parent="1">
          <mxGeometry x="380" y="570" width="130" height="30" as="geometry" />
        </mxCell>
      </root>
    </mxGraphModel>
  </diagram>
</mxfile>
